<svg xmlns="http://www.w3.org/2000/svg" viewBox="0 0 260 32" fill="none" role="img" aria-label="Saddle Up">
  <rect width="260" height="32" fill="#000000"/>
  <path
    fill="#FFFFFF"
    fill-rule="evenodd"
    clip-rule="evenodd"
    d="M16 4.2c-1.85 0-3.3 1.35-3.3 3.05v1.95h-1.7c-2.2 0-4.05 1.8-4.05 4.1v8.85c0 2.3 1.85 4.15 4.05 4.15h9c2.2 0 4.05-1.85 4.05-4.15v-8.85c0-2.3-1.85-4.1-4.05-4.1h-1.7V7.25c0-1.7-1.45-3.05-3.3-3.05Zm-1.55 3.05c0-.75.65-1.4 1.55-1.4s1.55.65 1.55 1.4v1.95h-3.1V7.25ZM12.15 11.4h7.7c.95 0 1.75.8 1.75 1.7v8.85c0 .9-.8 1.7-1.75 1.7h-7.7c-.95 0-1.75-.8-1.75-1.7v-8.85c0-.9.8-1.7 1.75-1.7Zm2.05 2.35v5.95h3.6v-5.95h-3.6Z"
  />
  <text
    x="44"
    y="21"
    font-family="Fraunces, Georgia, 'Times New Roman', serif"
    font-size="14"
    font-weight="500"
    letter-spacing="0.22em"
    fill="#FFFFFF"
  >SADDLE UP</text>
</svg>
